<mxfile host="Electron" modified="2023-06-16T12:25:30.017Z" agent="Mozilla/5.0 (Macintosh; Intel Mac OS X 10_15_7) AppleWebKit/537.36 (KHTML, like Gecko) draw.io/21.2.8 Chrome/112.0.5615.165 Electron/24.2.0 Safari/537.36" etag="hNZaJ2XTJTc2QO3qI2OV" version="21.2.8" type="device" pages="3">
  <diagram name="linear" id="d9b1e647-80fa-b4a2-5024-87a742678bcc">
    <mxGraphModel dx="2138" dy="1275" grid="1" gridSize="10" guides="1" tooltips="1" connect="1" arrows="1" fold="1" page="0" pageScale="1" pageWidth="1100" pageHeight="850" background="#ffffff" math="0" shadow="0">
      <root>
        <mxCell id="0" />
        <mxCell id="rrQy28cl5b0a1Zml79KH-1" value="foundation" parent="0" />
        <mxCell id="cLqnTd5TkxG-JCanMNB_-2" value="" style="rounded=0;whiteSpace=wrap;html=1;shadow=0;strokeColor=#000000;fillColor=#99CCFF;" parent="rrQy28cl5b0a1Zml79KH-1" vertex="1">
          <mxGeometry x="20" y="90" width="1040" height="40.03999999999999" as="geometry" />
        </mxCell>
        <mxCell id="cLqnTd5TkxG-JCanMNB_-1" value="&lt;p style=&quot;font-family: &amp;#34;helvetica&amp;#34; ; line-height: 10.8px&quot;&gt;&lt;span style=&quot;font-family: &amp;#34;helvetica&amp;#34; ; font-size: 14px&quot;&gt;Foundation&lt;/span&gt;&lt;br&gt;&lt;/p&gt;" style="text;spacingTop=-5;fillColor=#3333FF;whiteSpace=wrap;html=1;align=center;fontSize=12;fontFamily=Helvetica;fillColor=none;strokeColor=#000000;" parent="cLqnTd5TkxG-JCanMNB_-2" vertex="1">
          <mxGeometry y="0.03999999999999204" width="1040" height="40" as="geometry" />
        </mxCell>
        <mxCell id="kwRhqfz9SD8H6saeGJ2Z-18" value="" style="rounded=0;whiteSpace=wrap;html=1;shadow=0;strokeColor=#000000;fillColor=#99CCFF;" vertex="1" parent="rrQy28cl5b0a1Zml79KH-1">
          <mxGeometry x="20" y="140" width="1040" height="100" as="geometry" />
        </mxCell>
        <mxCell id="OxHNyZkpwN58KMfEd5uP-2" value="Threat Prioritization Plan" style="rounded=0;whiteSpace=wrap;html=1;fillColor=none;strokeColor=none;" vertex="1" parent="rrQy28cl5b0a1Zml79KH-1">
          <mxGeometry x="840" y="160" width="140" height="30" as="geometry" />
        </mxCell>
        <mxCell id="OxHNyZkpwN58KMfEd5uP-3" value="Deployment Plan" style="rounded=0;whiteSpace=wrap;html=1;fillColor=none;strokeColor=none;" vertex="1" parent="rrQy28cl5b0a1Zml79KH-1">
          <mxGeometry x="840" y="190" width="140" height="30" as="geometry" />
        </mxCell>
        <mxCell id="OxHNyZkpwN58KMfEd5uP-4" value="Decommissioning Plan" style="rounded=0;whiteSpace=wrap;html=1;fillColor=none;strokeColor=none;" vertex="1" parent="rrQy28cl5b0a1Zml79KH-1">
          <mxGeometry x="600" y="205" width="140" height="30" as="geometry" />
        </mxCell>
        <mxCell id="OxHNyZkpwN58KMfEd5uP-5" value="Incident Response Plan" style="rounded=0;whiteSpace=wrap;html=1;fillColor=none;strokeColor=none;" vertex="1" parent="rrQy28cl5b0a1Zml79KH-1">
          <mxGeometry x="600" y="175" width="140" height="30" as="geometry" />
        </mxCell>
        <mxCell id="OxHNyZkpwN58KMfEd5uP-6" value="Ensure Release Integrity" style="rounded=0;whiteSpace=wrap;html=1;fillColor=none;strokeColor=none;" vertex="1" parent="rrQy28cl5b0a1Zml79KH-1">
          <mxGeometry x="600" y="145" width="140" height="30" as="geometry" />
        </mxCell>
        <mxCell id="OxHNyZkpwN58KMfEd5uP-7" value="Protect the Code" style="rounded=0;whiteSpace=wrap;html=1;fillColor=none;strokeColor=none;" vertex="1" parent="rrQy28cl5b0a1Zml79KH-1">
          <mxGeometry x="350" y="205" width="140" height="30" as="geometry" />
        </mxCell>
        <mxCell id="OxHNyZkpwN58KMfEd5uP-8" value="Overall Requirements" style="rounded=0;whiteSpace=wrap;html=1;fillColor=none;strokeColor=none;" vertex="1" parent="rrQy28cl5b0a1Zml79KH-1">
          <mxGeometry x="350" y="175" width="140" height="30" as="geometry" />
        </mxCell>
        <mxCell id="OxHNyZkpwN58KMfEd5uP-9" value="Toolchain Support" style="rounded=0;whiteSpace=wrap;html=1;fillColor=none;strokeColor=none;" vertex="1" parent="rrQy28cl5b0a1Zml79KH-1">
          <mxGeometry x="350" y="145" width="140" height="30" as="geometry" />
        </mxCell>
        <mxCell id="OxHNyZkpwN58KMfEd5uP-10" value="Roles and Responsibilities" style="rounded=0;whiteSpace=wrap;html=1;fillColor=none;strokeColor=none;" vertex="1" parent="rrQy28cl5b0a1Zml79KH-1">
          <mxGeometry x="95" y="190" width="150" height="30" as="geometry" />
        </mxCell>
        <mxCell id="OxHNyZkpwN58KMfEd5uP-11" value="Training" style="rounded=0;whiteSpace=wrap;html=1;fillColor=none;strokeColor=none;" vertex="1" parent="rrQy28cl5b0a1Zml79KH-1">
          <mxGeometry x="100" y="160" width="140" height="30" as="geometry" />
        </mxCell>
        <mxCell id="1" value="development phases" parent="0" />
        <mxCell id="OMg3Ucl60HbNJE4Ea2DB-29" value="" style="rounded=0;whiteSpace=wrap;html=1;shadow=0;strokeColor=#000000;fillColor=#CCFFCC;" vertex="1" parent="1">
          <mxGeometry x="620" y="300" width="140" height="310" as="geometry" />
        </mxCell>
        <mxCell id="ZhLcxaQyDctIYuSdVefH-17" value="" style="rounded=0;whiteSpace=wrap;html=1;shadow=0;strokeColor=#000000;fillColor=#CCFFCC;" parent="1" vertex="1">
          <mxGeometry x="470" y="300" width="140" height="310" as="geometry" />
        </mxCell>
        <mxCell id="ZhLcxaQyDctIYuSdVefH-16" value="" style="rounded=0;whiteSpace=wrap;html=1;shadow=0;strokeColor=#000000;fillColor=#CCFFCC;" parent="1" vertex="1">
          <mxGeometry x="320" y="300" width="140" height="310" as="geometry" />
        </mxCell>
        <mxCell id="ZhLcxaQyDctIYuSdVefH-15" value="" style="rounded=0;whiteSpace=wrap;html=1;shadow=0;strokeColor=#000000;fillColor=#CCFFCC;" parent="1" vertex="1">
          <mxGeometry x="170" y="300" width="140" height="310" as="geometry" />
        </mxCell>
        <mxCell id="ZhLcxaQyDctIYuSdVefH-14" value="" style="rounded=0;whiteSpace=wrap;html=1;shadow=0;fillColor=#CCFFCC;strokeColor=#187A18;" parent="1" vertex="1">
          <mxGeometry x="20" y="300" width="140" height="310" as="geometry" />
        </mxCell>
        <mxCell id="57fe6abec08f04cb-2" value="&lt;p style=&quot;line-height: 100%;&quot;&gt;&lt;br&gt;&lt;/p&gt;" style="shape=step;whiteSpace=wrap;html=1;fontSize=28;strokeColor=#82b366;fillColor=#CCFFCC;spacing=0;verticalAlign=middle;" parent="1" vertex="1">
          <mxGeometry x="10" y="250" width="170" height="40" as="geometry" />
        </mxCell>
        <mxCell id="57fe6abec08f04cb-3" value="" style="shape=step;whiteSpace=wrap;html=1;fontSize=28;strokeColor=#82b366;fillColor=#CCFFCC;" parent="1" vertex="1">
          <mxGeometry x="160" y="250" width="170" height="40" as="geometry" />
        </mxCell>
        <mxCell id="57fe6abec08f04cb-4" value="&lt;p&gt;&lt;br&gt;&lt;/p&gt;" style="shape=step;whiteSpace=wrap;html=1;fontSize=28;strokeColor=#82b366;fillColor=#CCFFCC;" parent="1" vertex="1">
          <mxGeometry x="310" y="250" width="170" height="40" as="geometry" />
        </mxCell>
        <mxCell id="57fe6abec08f04cb-5" value="" style="shape=step;whiteSpace=wrap;html=1;fontSize=28;strokeColor=#82b366;fillColor=#CCFFCC;" parent="1" vertex="1">
          <mxGeometry x="460" y="250" width="170" height="40" as="geometry" />
        </mxCell>
        <mxCell id="57fe6abec08f04cb-6" value="" style="shape=step;whiteSpace=wrap;html=1;fontSize=28;strokeColor=#82b366;fillColor=#CCFFCC;" parent="1" vertex="1">
          <mxGeometry x="610" y="250" width="170" height="40" as="geometry" />
        </mxCell>
        <mxCell id="kwRhqfz9SD8H6saeGJ2Z-3" value="&lt;span style=&quot;color: rgb(0, 0, 0); font-family: Helvetica; font-size: 14px; font-style: normal; font-variant-ligatures: normal; font-variant-caps: normal; font-weight: 400; letter-spacing: normal; orphans: 2; text-indent: 0px; text-transform: none; widows: 2; word-spacing: 0px; -webkit-text-stroke-width: 0px; text-decoration-thickness: initial; text-decoration-style: initial; text-decoration-color: initial; float: none; display: inline !important; background-color: rgb(204, 255, 204);&quot;&gt;Requirements&lt;/span&gt;" style="text;whiteSpace=wrap;html=1;align=center;verticalAlign=middle;fillColor=none;" vertex="1" parent="1">
          <mxGeometry x="45" y="250" width="100" height="40" as="geometry" />
        </mxCell>
        <mxCell id="kwRhqfz9SD8H6saeGJ2Z-4" value="&lt;span style=&quot;color: rgb(0, 0, 0); font-family: Helvetica; font-size: 14px; font-style: normal; font-variant-ligatures: normal; font-variant-caps: normal; font-weight: 400; letter-spacing: normal; orphans: 2; text-indent: 0px; text-transform: none; widows: 2; word-spacing: 0px; -webkit-text-stroke-width: 0px; text-decoration-thickness: initial; text-decoration-style: initial; text-decoration-color: initial; float: none; display: inline !important; background-color: rgb(204, 255, 204);&quot;&gt;Design&lt;/span&gt;" style="text;whiteSpace=wrap;html=1;align=center;verticalAlign=middle;fillColor=none;" vertex="1" parent="1">
          <mxGeometry x="195" y="250" width="100" height="40" as="geometry" />
        </mxCell>
        <mxCell id="kwRhqfz9SD8H6saeGJ2Z-5" value="&lt;span style=&quot;color: rgb(0, 0, 0); font-family: Helvetica; font-size: 14px; font-style: normal; font-variant-ligatures: normal; font-variant-caps: normal; font-weight: 400; letter-spacing: normal; orphans: 2; text-indent: 0px; text-transform: none; widows: 2; word-spacing: 0px; -webkit-text-stroke-width: 0px; text-decoration-thickness: initial; text-decoration-style: initial; text-decoration-color: initial; float: none; display: inline !important; background-color: rgb(204, 255, 204);&quot;&gt;Implementation&lt;/span&gt;" style="text;whiteSpace=wrap;html=1;align=center;verticalAlign=middle;fillColor=none;" vertex="1" parent="1">
          <mxGeometry x="345" y="250" width="100" height="40" as="geometry" />
        </mxCell>
        <mxCell id="kwRhqfz9SD8H6saeGJ2Z-6" value="&lt;span style=&quot;color: rgb(0, 0, 0); font-family: Helvetica; font-size: 14px; font-style: normal; font-variant-ligatures: normal; font-variant-caps: normal; font-weight: 400; letter-spacing: normal; orphans: 2; text-indent: 0px; text-transform: none; widows: 2; word-spacing: 0px; -webkit-text-stroke-width: 0px; text-decoration-thickness: initial; text-decoration-style: initial; text-decoration-color: initial; float: none; display: inline !important; background-color: rgb(204, 255, 204);&quot;&gt;Verification&lt;/span&gt;" style="text;whiteSpace=wrap;html=1;align=center;verticalAlign=middle;fillColor=none;" vertex="1" parent="1">
          <mxGeometry x="495" y="250" width="100" height="40" as="geometry" />
        </mxCell>
        <mxCell id="kwRhqfz9SD8H6saeGJ2Z-7" value="&lt;span style=&quot;color: rgb(0, 0, 0); font-family: Helvetica; font-size: 14px; font-style: normal; font-variant-ligatures: normal; font-variant-caps: normal; font-weight: 400; letter-spacing: normal; orphans: 2; text-indent: 0px; text-transform: none; widows: 2; word-spacing: 0px; -webkit-text-stroke-width: 0px; text-decoration-thickness: initial; text-decoration-style: initial; text-decoration-color: initial; float: none; display: inline !important; background-color: rgb(204, 255, 204);&quot;&gt;Release&lt;/span&gt;" style="text;whiteSpace=wrap;html=1;align=center;verticalAlign=middle;fillColor=none;" vertex="1" parent="1">
          <mxGeometry x="645" y="250" width="100" height="40" as="geometry" />
        </mxCell>
        <mxCell id="OMg3Ucl60HbNJE4Ea2DB-9" value="Archive" style="rounded=0;whiteSpace=wrap;html=1;fillColor=none;strokeColor=none;" vertex="1" parent="1">
          <mxGeometry x="620" y="330" width="140" height="30" as="geometry" />
        </mxCell>
        <mxCell id="OMg3Ucl60HbNJE4Ea2DB-10" value="Final Review" style="rounded=0;whiteSpace=wrap;html=1;fillColor=none;strokeColor=none;" vertex="1" parent="1">
          <mxGeometry x="620" y="300" width="140" height="30" as="geometry" />
        </mxCell>
        <mxCell id="OMg3Ucl60HbNJE4Ea2DB-11" value="ASA Review" style="rounded=0;whiteSpace=wrap;html=1;fillColor=none;strokeColor=none;" vertex="1" parent="1">
          <mxGeometry x="470" y="360" width="140" height="30" as="geometry" />
        </mxCell>
        <mxCell id="OMg3Ucl60HbNJE4Ea2DB-12" value="Threat Model Review" style="rounded=0;whiteSpace=wrap;html=1;fillColor=none;strokeColor=none;" vertex="1" parent="1">
          <mxGeometry x="470" y="330" width="140" height="30" as="geometry" />
        </mxCell>
        <mxCell id="OMg3Ucl60HbNJE4Ea2DB-13" value="Penetration Testing" style="rounded=0;whiteSpace=wrap;html=1;fillColor=none;strokeColor=none;" vertex="1" parent="1">
          <mxGeometry x="470" y="300" width="140" height="30" as="geometry" />
        </mxCell>
        <mxCell id="OMg3Ucl60HbNJE4Ea2DB-14" value="Secure Code Review" style="rounded=0;whiteSpace=wrap;html=1;fillColor=none;strokeColor=none;" vertex="1" parent="1">
          <mxGeometry x="320" y="580" width="140" height="30" as="geometry" />
        </mxCell>
        <mxCell id="OMg3Ucl60HbNJE4Ea2DB-15" value="Fuzz Testing" style="rounded=0;whiteSpace=wrap;html=1;fillColor=none;strokeColor=none;" vertex="1" parent="1">
          <mxGeometry x="320" y="550" width="140" height="30" as="geometry" />
        </mxCell>
        <mxCell id="OMg3Ucl60HbNJE4Ea2DB-16" value="Dynamic Analysis" style="rounded=0;whiteSpace=wrap;html=1;fillColor=none;strokeColor=none;" vertex="1" parent="1">
          <mxGeometry x="320" y="520" width="140" height="30" as="geometry" />
        </mxCell>
        <mxCell id="OMg3Ucl60HbNJE4Ea2DB-17" value="Static Analysis" style="rounded=0;whiteSpace=wrap;html=1;fillColor=none;strokeColor=none;" vertex="1" parent="1">
          <mxGeometry x="320" y="490" width="140" height="30" as="geometry" />
        </mxCell>
        <mxCell id="OMg3Ucl60HbNJE4Ea2DB-18" value="Deprecate Unsafe Functions" style="rounded=0;whiteSpace=wrap;html=1;fillColor=none;strokeColor=none;" vertex="1" parent="1">
          <mxGeometry x="320" y="450" width="140" height="40" as="geometry" />
        </mxCell>
        <mxCell id="OMg3Ucl60HbNJE4Ea2DB-19" value="Code Securely" style="rounded=0;whiteSpace=wrap;html=1;fillColor=none;strokeColor=none;" vertex="1" parent="1">
          <mxGeometry x="320" y="420" width="140" height="30" as="geometry" />
        </mxCell>
        <mxCell id="OMg3Ucl60HbNJE4Ea2DB-20" value="Reuse Secure Software" style="rounded=0;whiteSpace=wrap;html=1;fillColor=none;strokeColor=none;" vertex="1" parent="1">
          <mxGeometry x="320" y="390" width="140" height="30" as="geometry" />
        </mxCell>
        <mxCell id="OMg3Ucl60HbNJE4Ea2DB-21" value="Use Secure Settings" style="rounded=0;whiteSpace=wrap;html=1;fillColor=none;strokeColor=none;" vertex="1" parent="1">
          <mxGeometry x="320" y="360" width="140" height="30" as="geometry" />
        </mxCell>
        <mxCell id="OMg3Ucl60HbNJE4Ea2DB-22" value="Configure Secure Build" style="rounded=0;whiteSpace=wrap;html=1;fillColor=none;strokeColor=none;" vertex="1" parent="1">
          <mxGeometry x="320" y="330" width="140" height="30" as="geometry" />
        </mxCell>
        <mxCell id="OMg3Ucl60HbNJE4Ea2DB-23" value="Use Approved Tools" style="rounded=0;whiteSpace=wrap;html=1;fillColor=none;strokeColor=none;" vertex="1" parent="1">
          <mxGeometry x="320" y="300" width="140" height="30" as="geometry" />
        </mxCell>
        <mxCell id="OMg3Ucl60HbNJE4Ea2DB-24" value="Threat Modeling" style="rounded=0;whiteSpace=wrap;html=1;fillColor=none;strokeColor=none;" vertex="1" parent="1">
          <mxGeometry x="170" y="390" width="140" height="30" as="geometry" />
        </mxCell>
        <mxCell id="OMg3Ucl60HbNJE4Ea2DB-25" value="Attack Surface Analysis" style="rounded=0;whiteSpace=wrap;html=1;fillColor=none;strokeColor=none;" vertex="1" parent="1">
          <mxGeometry x="170" y="360" width="140" height="30" as="geometry" />
        </mxCell>
        <mxCell id="OMg3Ucl60HbNJE4Ea2DB-26" value="Security Design Review" style="rounded=0;whiteSpace=wrap;html=1;fillColor=none;strokeColor=none;" vertex="1" parent="1">
          <mxGeometry x="170" y="330" width="140" height="30" as="geometry" />
        </mxCell>
        <mxCell id="OMg3Ucl60HbNJE4Ea2DB-27" value="Secure Design" style="rounded=0;whiteSpace=wrap;html=1;fillColor=none;strokeColor=none;" vertex="1" parent="1">
          <mxGeometry x="170" y="300" width="140" height="30" as="geometry" />
        </mxCell>
        <mxCell id="OMg3Ucl60HbNJE4Ea2DB-2" value="Security Requirements" style="rounded=0;whiteSpace=wrap;html=1;fillColor=none;strokeColor=none;" vertex="1" parent="1">
          <mxGeometry x="20" y="300" width="140" height="30" as="geometry" />
        </mxCell>
        <mxCell id="rrQy28cl5b0a1Zml79KH-3" value="phase gates" parent="0" />
        <mxCell id="3lKNwoQKIAJr2jvi4gNz-2" value="Design Gate" style="rounded=0;whiteSpace=wrap;html=1;shadow=0;fillColor=#CCFFCC;strokeColor=#187A18;" parent="rrQy28cl5b0a1Zml79KH-3" vertex="1">
          <mxGeometry x="170" y="610" width="140" height="30" as="geometry" />
        </mxCell>
        <mxCell id="3lKNwoQKIAJr2jvi4gNz-3" value="Requirements Gate" style="rounded=0;whiteSpace=wrap;html=1;shadow=0;fillColor=#CCFFCC;strokeColor=#187A18;" parent="rrQy28cl5b0a1Zml79KH-3" vertex="1">
          <mxGeometry x="20" y="610" width="140" height="30" as="geometry" />
        </mxCell>
        <mxCell id="3lKNwoQKIAJr2jvi4gNz-4" value="Implementation Gate" style="rounded=0;whiteSpace=wrap;html=1;shadow=0;fillColor=#CCFFCC;strokeColor=#187A18;" parent="rrQy28cl5b0a1Zml79KH-3" vertex="1">
          <mxGeometry x="320" y="610" width="140" height="30" as="geometry" />
        </mxCell>
        <mxCell id="3lKNwoQKIAJr2jvi4gNz-5" value="Verification Gate" style="rounded=0;whiteSpace=wrap;html=1;shadow=0;fillColor=#CCFFCC;strokeColor=#187A18;" parent="rrQy28cl5b0a1Zml79KH-3" vertex="1">
          <mxGeometry x="470" y="610" width="140" height="30" as="geometry" />
        </mxCell>
        <mxCell id="3lKNwoQKIAJr2jvi4gNz-6" value="Release Gate" style="rounded=0;whiteSpace=wrap;html=1;shadow=0;fillColor=#CCFFCC;strokeColor=#187A18;" parent="rrQy28cl5b0a1Zml79KH-3" vertex="1">
          <mxGeometry x="620" y="610" width="140" height="30" as="geometry" />
        </mxCell>
        <mxCell id="rrQy28cl5b0a1Zml79KH-2" value="post-production phases" parent="0" />
        <mxCell id="ZhLcxaQyDctIYuSdVefH-20" value="" style="rounded=0;whiteSpace=wrap;html=1;shadow=0;fillColor=#FDFFE0;strokeColor=default;" parent="rrQy28cl5b0a1Zml79KH-2" vertex="1">
          <mxGeometry x="920" y="300" width="135.17" height="340" as="geometry" />
        </mxCell>
        <mxCell id="ZhLcxaQyDctIYuSdVefH-27" value="" style="group;strokeColor=none;fillColor=#fdffe0;" parent="rrQy28cl5b0a1Zml79KH-2" vertex="1" connectable="0">
          <mxGeometry x="770" y="300" width="140" height="340" as="geometry" />
        </mxCell>
        <mxCell id="ZhLcxaQyDctIYuSdVefH-19" value="" style="rounded=0;whiteSpace=wrap;html=1;shadow=0;strokeColor=#d6b656;fillColor=#FDFFE0;" parent="ZhLcxaQyDctIYuSdVefH-27" vertex="1">
          <mxGeometry width="140" height="340" as="geometry" />
        </mxCell>
        <mxCell id="ZhLcxaQyDctIYuSdVefH-6" value="&lt;div style=&quot;text-align: center&quot;&gt;&lt;br&gt;&lt;/div&gt;" style="text;spacingTop=-5;fillColor=#fff2cc;whiteSpace=wrap;html=1;align=left;fontSize=12;fontFamily=Helvetica;fillColor=none;strokeColor=#000000;" parent="ZhLcxaQyDctIYuSdVefH-27" vertex="1">
          <mxGeometry width="140" height="340" as="geometry" />
        </mxCell>
        <mxCell id="OMg3Ucl60HbNJE4Ea2DB-31" value="Secure Deployment" style="rounded=0;whiteSpace=wrap;html=1;fillColor=none;strokeColor=none;" vertex="1" parent="ZhLcxaQyDctIYuSdVefH-27">
          <mxGeometry y="123.63636363636363" width="140" height="30.909090909090907" as="geometry" />
        </mxCell>
        <mxCell id="OMg3Ucl60HbNJE4Ea2DB-32" value="Identify / Confirm Vulnerabilities" style="rounded=0;whiteSpace=wrap;html=1;fillColor=none;strokeColor=none;" vertex="1" parent="ZhLcxaQyDctIYuSdVefH-27">
          <mxGeometry width="140" height="41.21212121212121" as="geometry" />
        </mxCell>
        <mxCell id="OMg3Ucl60HbNJE4Ea2DB-33" value="Assess / Prioritize Remediation" style="rounded=0;whiteSpace=wrap;html=1;fillColor=none;strokeColor=none;" vertex="1" parent="ZhLcxaQyDctIYuSdVefH-27">
          <mxGeometry y="41.21212121212121" width="140" height="41.21212121212121" as="geometry" />
        </mxCell>
        <mxCell id="OMg3Ucl60HbNJE4Ea2DB-34" value="Root Cause Vulnerabilities" style="rounded=0;whiteSpace=wrap;html=1;fillColor=none;strokeColor=none;" vertex="1" parent="ZhLcxaQyDctIYuSdVefH-27">
          <mxGeometry y="82.42424242424242" width="140" height="41.21212121212121" as="geometry" />
        </mxCell>
        <mxCell id="ZhLcxaQyDctIYuSdVefH-8" value="" style="shape=step;whiteSpace=wrap;html=1;fontSize=28;fillColor=#FDFFE0;" parent="rrQy28cl5b0a1Zml79KH-2" vertex="1">
          <mxGeometry x="760" y="250" width="170" height="40" as="geometry" />
        </mxCell>
        <mxCell id="ZhLcxaQyDctIYuSdVefH-9" value="" style="shape=step;whiteSpace=wrap;html=1;fontSize=28;shadow=0;fillColor=#FDFFE0;" parent="rrQy28cl5b0a1Zml79KH-2" vertex="1">
          <mxGeometry x="910" y="250" width="170" height="40" as="geometry" />
        </mxCell>
        <mxCell id="kwRhqfz9SD8H6saeGJ2Z-8" value="&lt;span style=&quot;color: rgb(0, 0, 0); font-family: Helvetica; font-size: 14px; font-style: normal; font-variant-ligatures: normal; font-variant-caps: normal; font-weight: 400; letter-spacing: normal; orphans: 2; text-indent: 0px; text-transform: none; widows: 2; word-spacing: 0px; -webkit-text-stroke-width: 0px; text-decoration-thickness: initial; text-decoration-style: initial; text-decoration-color: initial; float: none; display: inline !important; background-color: rgb(253, 255, 224);&quot;&gt;Operation&lt;/span&gt;" style="text;whiteSpace=wrap;html=1;align=center;verticalAlign=middle;fillColor=none;" vertex="1" parent="rrQy28cl5b0a1Zml79KH-2">
          <mxGeometry x="795" y="250" width="100" height="40" as="geometry" />
        </mxCell>
        <mxCell id="kwRhqfz9SD8H6saeGJ2Z-9" value="&lt;span style=&quot;color: rgb(0, 0, 0); font-family: Helvetica; font-size: 14px; font-style: normal; font-variant-ligatures: normal; font-variant-caps: normal; font-weight: 400; letter-spacing: normal; orphans: 2; text-indent: 0px; text-transform: none; widows: 2; word-spacing: 0px; -webkit-text-stroke-width: 0px; text-decoration-thickness: initial; text-decoration-style: initial; text-decoration-color: initial; float: none; display: inline !important; background-color: rgb(253, 255, 224);&quot;&gt;Decommissioning&lt;/span&gt;" style="text;whiteSpace=wrap;html=1;align=center;verticalAlign=middle;fillColor=none;" vertex="1" parent="rrQy28cl5b0a1Zml79KH-2">
          <mxGeometry x="945" y="250" width="120" height="40" as="geometry" />
        </mxCell>
        <mxCell id="OMg3Ucl60HbNJE4Ea2DB-30" value="Decommissioning Process" style="rounded=0;whiteSpace=wrap;html=1;fillColor=none;strokeColor=none;" vertex="1" parent="rrQy28cl5b0a1Zml79KH-2">
          <mxGeometry x="920" y="300" width="140" height="40" as="geometry" />
        </mxCell>
        <object label="implementation defects" id="Pa4lmaO8eFdmNF2szMAN-1">
          <mxCell parent="0" visible="0" />
        </object>
        <mxCell id="Pa4lmaO8eFdmNF2szMAN-2" value="&lt;span style=&quot;color: rgb(0, 0, 0); font-family: helvetica; font-style: normal; font-variant-ligatures: normal; font-variant-caps: normal; font-weight: 400; letter-spacing: normal; orphans: 2; text-indent: 0px; text-transform: none; widows: 2; word-spacing: 0px; -webkit-text-stroke-width: 0px; background-color: rgb(255, 255, 255); text-decoration-thickness: initial; text-decoration-style: initial; text-decoration-color: initial; float: none; display: inline !important;&quot;&gt;&lt;font style=&quot;font-size: 24px;&quot;&gt;implementation&lt;br&gt;defects&lt;br&gt;&lt;/font&gt;&lt;/span&gt;" style="text;whiteSpace=wrap;html=1;align=center;verticalAlign=middle;" parent="Pa4lmaO8eFdmNF2szMAN-1" vertex="1">
          <mxGeometry x="580" y="650" width="180" height="50" as="geometry" />
        </mxCell>
        <mxCell id="OMg3Ucl60HbNJE4Ea2DB-47" value="" style="endArrow=classicThin;html=1;rounded=0;fontSize=24;fontColor=#6600CC;strokeColor=#FF0000;strokeWidth=3;endFill=1;exitX=0.5;exitY=0;exitDx=0;exitDy=0;entryX=0.75;entryY=1;entryDx=0;entryDy=0;startArrow=none;startFill=0;" edge="1" parent="Pa4lmaO8eFdmNF2szMAN-1" source="Pa4lmaO8eFdmNF2szMAN-2" target="OMg3Ucl60HbNJE4Ea2DB-13">
          <mxGeometry width="50" height="50" relative="1" as="geometry">
            <mxPoint x="-420" y="130" as="sourcePoint" />
            <mxPoint x="-10" y="-130" as="targetPoint" />
          </mxGeometry>
        </mxCell>
        <mxCell id="OMg3Ucl60HbNJE4Ea2DB-48" value="" style="endArrow=classicThin;html=1;rounded=0;fontSize=24;fontColor=#6600CC;strokeColor=#FF0000;strokeWidth=3;endFill=1;exitX=0.5;exitY=0;exitDx=0;exitDy=0;entryX=0.75;entryY=1;entryDx=0;entryDy=0;startArrow=none;startFill=0;" edge="1" parent="Pa4lmaO8eFdmNF2szMAN-1" source="Pa4lmaO8eFdmNF2szMAN-2" target="OMg3Ucl60HbNJE4Ea2DB-17">
          <mxGeometry width="50" height="50" relative="1" as="geometry">
            <mxPoint x="-410" y="140" as="sourcePoint" />
            <mxPoint y="-120" as="targetPoint" />
          </mxGeometry>
        </mxCell>
        <mxCell id="OMg3Ucl60HbNJE4Ea2DB-49" value="" style="endArrow=classicThin;html=1;rounded=0;fontSize=24;fontColor=#6600CC;strokeColor=#FF0000;strokeWidth=3;endFill=1;exitX=0.5;exitY=0;exitDx=0;exitDy=0;startArrow=none;startFill=0;entryX=0.75;entryY=1;entryDx=0;entryDy=0;" edge="1" parent="Pa4lmaO8eFdmNF2szMAN-1" source="Pa4lmaO8eFdmNF2szMAN-2" target="OMg3Ucl60HbNJE4Ea2DB-16">
          <mxGeometry width="50" height="50" relative="1" as="geometry">
            <mxPoint x="-400" y="150" as="sourcePoint" />
            <mxPoint x="10" y="-110" as="targetPoint" />
          </mxGeometry>
        </mxCell>
        <mxCell id="OMg3Ucl60HbNJE4Ea2DB-50" value="" style="endArrow=classicThin;html=1;rounded=0;fontSize=24;fontColor=#6600CC;strokeColor=#FF0000;strokeWidth=3;endFill=1;exitX=0.5;exitY=0;exitDx=0;exitDy=0;entryX=0.75;entryY=1;entryDx=0;entryDy=0;startArrow=none;startFill=0;" edge="1" parent="Pa4lmaO8eFdmNF2szMAN-1" source="Pa4lmaO8eFdmNF2szMAN-2" target="OMg3Ucl60HbNJE4Ea2DB-15">
          <mxGeometry width="50" height="50" relative="1" as="geometry">
            <mxPoint x="-390" y="160" as="sourcePoint" />
            <mxPoint x="20" y="-100" as="targetPoint" />
          </mxGeometry>
        </mxCell>
        <mxCell id="OMg3Ucl60HbNJE4Ea2DB-51" value="" style="endArrow=classicThin;html=1;rounded=0;fontSize=24;fontColor=#6600CC;strokeColor=#FF0000;strokeWidth=3;endFill=1;exitX=0.5;exitY=0;exitDx=0;exitDy=0;entryX=0.75;entryY=0;entryDx=0;entryDy=0;startArrow=none;startFill=0;" edge="1" parent="Pa4lmaO8eFdmNF2szMAN-1" source="Pa4lmaO8eFdmNF2szMAN-2" target="3lKNwoQKIAJr2jvi4gNz-4">
          <mxGeometry width="50" height="50" relative="1" as="geometry">
            <mxPoint x="-380" y="170" as="sourcePoint" />
            <mxPoint x="30" y="-90" as="targetPoint" />
          </mxGeometry>
        </mxCell>
        <mxCell id="kwRhqfz9SD8H6saeGJ2Z-1" value="design deficiencies" parent="0" visible="0" />
        <mxCell id="Pa4lmaO8eFdmNF2szMAN-3" value="&lt;span style=&quot;color: rgb(0, 0, 0); font-family: helvetica; font-style: normal; font-variant-ligatures: normal; font-variant-caps: normal; font-weight: 400; letter-spacing: normal; orphans: 2; text-indent: 0px; text-transform: none; widows: 2; word-spacing: 0px; -webkit-text-stroke-width: 0px; background-color: rgb(255, 255, 255); text-decoration-thickness: initial; text-decoration-style: initial; text-decoration-color: initial; float: none; display: inline !important;&quot;&gt;&lt;font style=&quot;font-size: 24px;&quot;&gt;design&lt;br&gt;deficiencies&lt;br&gt;&lt;/font&gt;&lt;/span&gt;" style="text;whiteSpace=wrap;html=1;align=center;verticalAlign=middle;fillColor=none;" parent="kwRhqfz9SD8H6saeGJ2Z-1" vertex="1">
          <mxGeometry x="30" y="650" width="130" height="50" as="geometry" />
        </mxCell>
        <mxCell id="OMg3Ucl60HbNJE4Ea2DB-42" value="" style="endArrow=classicThin;html=1;rounded=0;fontSize=24;fontColor=#6600CC;strokeColor=#6600CC;strokeWidth=3;endFill=1;exitX=0.5;exitY=0;exitDx=0;exitDy=0;entryX=0.25;entryY=1;entryDx=0;entryDy=0;startArrow=none;startFill=0;" edge="1" parent="kwRhqfz9SD8H6saeGJ2Z-1" source="Pa4lmaO8eFdmNF2szMAN-3" target="OMg3Ucl60HbNJE4Ea2DB-26">
          <mxGeometry width="50" height="50" relative="1" as="geometry">
            <mxPoint x="-390" y="-80" as="sourcePoint" />
            <mxPoint x="30" y="-80" as="targetPoint" />
          </mxGeometry>
        </mxCell>
        <mxCell id="OMg3Ucl60HbNJE4Ea2DB-43" value="" style="endArrow=classicThin;html=1;rounded=0;fontSize=24;fontColor=#6600CC;strokeColor=#6600CC;strokeWidth=3;endFill=1;exitX=0.5;exitY=0;exitDx=0;exitDy=0;entryX=0.379;entryY=0.967;entryDx=0;entryDy=0;startArrow=none;startFill=0;entryPerimeter=0;" edge="1" parent="kwRhqfz9SD8H6saeGJ2Z-1" source="Pa4lmaO8eFdmNF2szMAN-3" target="OMg3Ucl60HbNJE4Ea2DB-25">
          <mxGeometry width="50" height="50" relative="1" as="geometry">
            <mxPoint x="-380" y="-70" as="sourcePoint" />
            <mxPoint x="40" y="-70" as="targetPoint" />
          </mxGeometry>
        </mxCell>
        <mxCell id="OMg3Ucl60HbNJE4Ea2DB-44" value="" style="endArrow=classicThin;html=1;rounded=0;fontSize=24;fontColor=#6600CC;strokeColor=#6600CC;strokeWidth=3;endFill=1;exitX=0.5;exitY=0;exitDx=0;exitDy=0;entryX=0.5;entryY=1;entryDx=0;entryDy=0;startArrow=none;startFill=0;" edge="1" parent="kwRhqfz9SD8H6saeGJ2Z-1" source="Pa4lmaO8eFdmNF2szMAN-3" target="OMg3Ucl60HbNJE4Ea2DB-24">
          <mxGeometry width="50" height="50" relative="1" as="geometry">
            <mxPoint x="-370" y="-60" as="sourcePoint" />
            <mxPoint x="50" y="-60" as="targetPoint" />
          </mxGeometry>
        </mxCell>
        <mxCell id="OMg3Ucl60HbNJE4Ea2DB-45" value="" style="endArrow=classicThin;html=1;rounded=0;fontSize=24;fontColor=#6600CC;strokeColor=#6600CC;strokeWidth=3;endFill=1;exitX=0.5;exitY=0;exitDx=0;exitDy=0;entryX=0.25;entryY=1;entryDx=0;entryDy=0;startArrow=none;startFill=0;" edge="1" parent="kwRhqfz9SD8H6saeGJ2Z-1" source="Pa4lmaO8eFdmNF2szMAN-3" target="OMg3Ucl60HbNJE4Ea2DB-12">
          <mxGeometry width="50" height="50" relative="1" as="geometry">
            <mxPoint x="-360" y="-50" as="sourcePoint" />
            <mxPoint x="60" y="-50" as="targetPoint" />
          </mxGeometry>
        </mxCell>
        <mxCell id="OMg3Ucl60HbNJE4Ea2DB-46" value="" style="endArrow=classicThin;html=1;rounded=0;fontSize=24;fontColor=#6600CC;strokeColor=#6600CC;strokeWidth=3;endFill=1;exitX=0.5;exitY=0;exitDx=0;exitDy=0;entryX=0.25;entryY=1;entryDx=0;entryDy=0;startArrow=none;startFill=0;" edge="1" parent="kwRhqfz9SD8H6saeGJ2Z-1" source="Pa4lmaO8eFdmNF2szMAN-3" target="OMg3Ucl60HbNJE4Ea2DB-11">
          <mxGeometry width="50" height="50" relative="1" as="geometry">
            <mxPoint x="-350" y="-40" as="sourcePoint" />
            <mxPoint x="70" y="-40" as="targetPoint" />
          </mxGeometry>
        </mxCell>
        <mxCell id="kwRhqfz9SD8H6saeGJ2Z-2" value="deficiencies - defects line" parent="0" visible="0" />
        <mxCell id="Pa4lmaO8eFdmNF2szMAN-9" value="" style="endArrow=block;html=1;rounded=0;fontSize=24;fontColor=#6600CC;strokeColor=#0000CC;strokeWidth=4;endFill=1;exitX=1;exitY=0.5;exitDx=0;exitDy=0;entryX=0;entryY=0.5;entryDx=0;entryDy=0;startArrow=block;startFill=1;" parent="kwRhqfz9SD8H6saeGJ2Z-2" source="Pa4lmaO8eFdmNF2szMAN-3" target="Pa4lmaO8eFdmNF2szMAN-2" edge="1">
          <mxGeometry width="50" height="50" relative="1" as="geometry">
            <mxPoint x="-440" y="432" as="sourcePoint" />
            <mxPoint x="-304.98" y="142" as="targetPoint" />
          </mxGeometry>
        </mxCell>
        <mxCell id="kwRhqfz9SD8H6saeGJ2Z-21" value="V-model overlay" parent="0" visible="0" />
        <mxCell id="OMg3Ucl60HbNJE4Ea2DB-54" value="" style="endArrow=none;html=1;strokeColor=#FF0000;strokeWidth=48;entryX=0.25;entryY=1;entryDx=0;entryDy=0;exitX=0.75;exitY=1;exitDx=0;exitDy=0;rounded=0;strokeOpacity=50;" edge="1" parent="kwRhqfz9SD8H6saeGJ2Z-21" source="OMg3Ucl60HbNJE4Ea2DB-10" target="OMg3Ucl60HbNJE4Ea2DB-2">
          <mxGeometry width="50" height="50" relative="1" as="geometry">
            <mxPoint x="400" y="620" as="sourcePoint" />
            <mxPoint x="735" y="340" as="targetPoint" />
            <Array as="points">
              <mxPoint x="390" y="580" />
            </Array>
          </mxGeometry>
        </mxCell>
      </root>
    </mxGraphModel>
  </diagram>
  <diagram id="QSHoH_yLy761IzOduRF_" name="cyclic - detail">
    <mxGraphModel dx="2938" dy="875" grid="1" gridSize="10" guides="1" tooltips="1" connect="1" arrows="1" fold="1" page="0" pageScale="1" pageWidth="850" pageHeight="1100" math="0" shadow="0">
      <root>
        <mxCell id="0" />
        <mxCell id="InZZHGaFa6eUnNspskKd-7" value="guide" parent="0" visible="0" />
        <mxCell id="pCiRipMVR1fJTcz5pFKm-1" value="" style="ellipse;whiteSpace=wrap;html=1;aspect=fixed;fillColor=none;strokeWidth=4;" parent="InZZHGaFa6eUnNspskKd-7" vertex="1">
          <mxGeometry x="-572.5" y="830" width="970" height="970" as="geometry" />
        </mxCell>
        <mxCell id="1" value="framework" parent="0" />
        <mxCell id="pCiRipMVR1fJTcz5pFKm-2" value="&lt;font style=&quot;font-size: 32px;&quot;&gt;Foundation&lt;/font&gt;" style="ellipse;whiteSpace=wrap;html=1;aspect=fixed;fillColor=#99CCFF;" parent="1" vertex="1">
          <mxGeometry x="-300" y="1100" width="420" height="420" as="geometry" />
        </mxCell>
        <mxCell id="pCiRipMVR1fJTcz5pFKm-3" value="Training" style="ellipse;whiteSpace=wrap;html=1;aspect=fixed;" parent="1" vertex="1">
          <mxGeometry x="-130" y="1120" width="80" height="80" as="geometry" />
        </mxCell>
        <mxCell id="pCiRipMVR1fJTcz5pFKm-4" value="Roles and Responsibilities" style="ellipse;whiteSpace=wrap;html=1;aspect=fixed;" parent="1" vertex="1">
          <mxGeometry x="-40" y="1160" width="100" height="100" as="geometry" />
        </mxCell>
        <mxCell id="pCiRipMVR1fJTcz5pFKm-5" value="Toolchain Support" style="ellipse;whiteSpace=wrap;html=1;aspect=fixed;" parent="1" vertex="1">
          <mxGeometry x="30" y="1260" width="80" height="80" as="geometry" />
        </mxCell>
        <mxCell id="pCiRipMVR1fJTcz5pFKm-6" value="Overall Requirements" style="ellipse;whiteSpace=wrap;html=1;aspect=fixed;" parent="1" vertex="1">
          <mxGeometry x="-15" y="1350" width="90" height="90" as="geometry" />
        </mxCell>
        <mxCell id="pCiRipMVR1fJTcz5pFKm-7" value="Protect the Code" style="ellipse;whiteSpace=wrap;html=1;aspect=fixed;" parent="1" vertex="1">
          <mxGeometry x="-100" y="1430" width="80" height="80" as="geometry" />
        </mxCell>
        <mxCell id="pCiRipMVR1fJTcz5pFKm-8" value="Ensure Release Integrity" style="ellipse;whiteSpace=wrap;html=1;aspect=fixed;" parent="1" vertex="1">
          <mxGeometry x="-200" y="1410" width="80" height="80" as="geometry" />
        </mxCell>
        <mxCell id="pCiRipMVR1fJTcz5pFKm-9" value="Incident Response Plan" style="ellipse;whiteSpace=wrap;html=1;aspect=fixed;" parent="1" vertex="1">
          <mxGeometry x="-270" y="1340" width="80" height="80" as="geometry" />
        </mxCell>
        <mxCell id="pCiRipMVR1fJTcz5pFKm-10" value="Threat Prioritization Plan" style="ellipse;whiteSpace=wrap;html=1;aspect=fixed;" parent="1" vertex="1">
          <mxGeometry x="-290" y="1250" width="80" height="80" as="geometry" />
        </mxCell>
        <mxCell id="pCiRipMVR1fJTcz5pFKm-11" value="Deployment Plan" style="ellipse;whiteSpace=wrap;html=1;aspect=fixed;" parent="1" vertex="1">
          <mxGeometry x="-230" y="1160" width="80" height="80" as="geometry" />
        </mxCell>
        <mxCell id="pCiRipMVR1fJTcz5pFKm-12" value="&lt;font style=&quot;font-size: 32px;&quot;&gt;Requirements&lt;/font&gt;" style="ellipse;whiteSpace=wrap;html=1;aspect=fixed;fillColor=#C7F9C7;" parent="1" vertex="1">
          <mxGeometry x="230" y="1180" width="260" height="260" as="geometry" />
        </mxCell>
        <mxCell id="pCiRipMVR1fJTcz5pFKm-13" value="Security Requirements" style="ellipse;whiteSpace=wrap;html=1;aspect=fixed;" parent="1" vertex="1">
          <mxGeometry x="315" y="1200" width="90" height="90" as="geometry" />
        </mxCell>
        <mxCell id="pCiRipMVR1fJTcz5pFKm-16" value="&lt;font style=&quot;font-size: 32px;&quot;&gt;Design&lt;/font&gt;" style="ellipse;whiteSpace=wrap;html=1;aspect=fixed;fillColor=#C7F9C7;" parent="1" vertex="1">
          <mxGeometry x="55" y="1570" width="260" height="260" as="geometry" />
        </mxCell>
        <mxCell id="pCiRipMVR1fJTcz5pFKm-17" value="Secure Design" style="ellipse;whiteSpace=wrap;html=1;aspect=fixed;" parent="1" vertex="1">
          <mxGeometry x="95" y="1600" width="80" height="80" as="geometry" />
        </mxCell>
        <mxCell id="pCiRipMVR1fJTcz5pFKm-18" value="Security Design Review" style="ellipse;whiteSpace=wrap;html=1;aspect=fixed;" parent="1" vertex="1">
          <mxGeometry x="195" y="1600" width="80" height="80" as="geometry" />
        </mxCell>
        <mxCell id="pCiRipMVR1fJTcz5pFKm-19" value="Attack Surface Analysis" style="ellipse;whiteSpace=wrap;html=1;aspect=fixed;" parent="1" vertex="1">
          <mxGeometry x="195" y="1720" width="80" height="80" as="geometry" />
        </mxCell>
        <mxCell id="pCiRipMVR1fJTcz5pFKm-20" value="Threat Modeling" style="ellipse;whiteSpace=wrap;html=1;aspect=fixed;" parent="1" vertex="1">
          <mxGeometry x="95" y="1720" width="80" height="80" as="geometry" />
        </mxCell>
        <mxCell id="pCiRipMVR1fJTcz5pFKm-22" value="&lt;font style=&quot;font-size: 32px;&quot;&gt;Implementation&lt;/font&gt;" style="ellipse;whiteSpace=wrap;html=1;aspect=fixed;fillColor=#C7F9C7;" parent="1" vertex="1">
          <mxGeometry x="-572.5" y="1530" width="475" height="475" as="geometry" />
        </mxCell>
        <mxCell id="pCiRipMVR1fJTcz5pFKm-23" value="Use&lt;br&gt;Approved Tools" style="ellipse;whiteSpace=wrap;html=1;aspect=fixed;" parent="1" vertex="1">
          <mxGeometry x="-375" y="1540" width="80" height="80" as="geometry" />
        </mxCell>
        <mxCell id="pCiRipMVR1fJTcz5pFKm-24" value="Configure Secure&lt;br&gt;Build" style="ellipse;whiteSpace=wrap;html=1;aspect=fixed;" parent="1" vertex="1">
          <mxGeometry x="-280" y="1590" width="80" height="80" as="geometry" />
        </mxCell>
        <mxCell id="pCiRipMVR1fJTcz5pFKm-25" value="Code&lt;br&gt;Securely" style="ellipse;whiteSpace=wrap;html=1;aspect=fixed;" parent="1" vertex="1">
          <mxGeometry x="-280" y="1870" width="80" height="80" as="geometry" />
        </mxCell>
        <mxCell id="pCiRipMVR1fJTcz5pFKm-26" value="Reuse&lt;br&gt;Secure&lt;br&gt;Software" style="ellipse;whiteSpace=wrap;html=1;aspect=fixed;" parent="1" vertex="1">
          <mxGeometry x="-210" y="1780" width="80" height="80" as="geometry" />
        </mxCell>
        <mxCell id="pCiRipMVR1fJTcz5pFKm-27" value="Use&lt;br&gt;Secure&lt;br&gt;Settings" style="ellipse;whiteSpace=wrap;html=1;aspect=fixed;" parent="1" vertex="1">
          <mxGeometry x="-210" y="1680" width="80" height="80" as="geometry" />
        </mxCell>
        <mxCell id="pCiRipMVR1fJTcz5pFKm-28" value="Deprecate Unsafe Functions" style="ellipse;whiteSpace=wrap;html=1;aspect=fixed;" parent="1" vertex="1">
          <mxGeometry x="-375" y="1910" width="80" height="80" as="geometry" />
        </mxCell>
        <mxCell id="pCiRipMVR1fJTcz5pFKm-29" value="Static Analysis" style="ellipse;whiteSpace=wrap;html=1;aspect=fixed;" parent="1" vertex="1">
          <mxGeometry x="-470" y="1870" width="80" height="80" as="geometry" />
        </mxCell>
        <mxCell id="pCiRipMVR1fJTcz5pFKm-30" value="Secure&lt;br&gt;Code&lt;br&gt;Review" style="ellipse;whiteSpace=wrap;html=1;aspect=fixed;" parent="1" vertex="1">
          <mxGeometry x="-470" y="1590" width="80" height="80" as="geometry" />
        </mxCell>
        <mxCell id="pCiRipMVR1fJTcz5pFKm-31" value="Fuzz&lt;br&gt;Testing" style="ellipse;whiteSpace=wrap;html=1;aspect=fixed;" parent="1" vertex="1">
          <mxGeometry x="-540" y="1680" width="80" height="80" as="geometry" />
        </mxCell>
        <mxCell id="pCiRipMVR1fJTcz5pFKm-32" value="Dynamic Analysis" style="ellipse;whiteSpace=wrap;html=1;aspect=fixed;" parent="1" vertex="1">
          <mxGeometry x="-540" y="1780" width="80" height="80" as="geometry" />
        </mxCell>
        <mxCell id="pCiRipMVR1fJTcz5pFKm-33" value="&lt;font style=&quot;font-size: 32px;&quot;&gt;Verification&lt;/font&gt;" style="ellipse;whiteSpace=wrap;html=1;aspect=fixed;fillColor=#C7F9C7;" parent="1" vertex="1">
          <mxGeometry x="-702.5" y="1180" width="260" height="260" as="geometry" />
        </mxCell>
        <mxCell id="pCiRipMVR1fJTcz5pFKm-34" value="Penetration Testing" style="ellipse;whiteSpace=wrap;html=1;aspect=fixed;" parent="1" vertex="1">
          <mxGeometry x="-612.5" y="1200" width="80" height="80" as="geometry" />
        </mxCell>
        <mxCell id="pCiRipMVR1fJTcz5pFKm-35" value="Threat&lt;br&gt;Model&lt;br&gt;Review" style="ellipse;whiteSpace=wrap;html=1;aspect=fixed;" parent="1" vertex="1">
          <mxGeometry x="-562.5" y="1330" width="80" height="80" as="geometry" />
        </mxCell>
        <mxCell id="pCiRipMVR1fJTcz5pFKm-36" value="ASA&lt;br&gt;Review" style="ellipse;whiteSpace=wrap;html=1;aspect=fixed;" parent="1" vertex="1">
          <mxGeometry x="-652.5" y="1330" width="80" height="80" as="geometry" />
        </mxCell>
        <mxCell id="pCiRipMVR1fJTcz5pFKm-38" value="&lt;font style=&quot;font-size: 32px;&quot;&gt;Release&lt;/font&gt;" style="ellipse;whiteSpace=wrap;html=1;aspect=fixed;fillColor=#C7F9C7;" parent="1" vertex="1">
          <mxGeometry x="-490" y="790" width="260" height="260" as="geometry" />
        </mxCell>
        <mxCell id="pCiRipMVR1fJTcz5pFKm-39" value="Final&lt;br&gt;Review" style="ellipse;whiteSpace=wrap;html=1;aspect=fixed;" parent="1" vertex="1">
          <mxGeometry x="-400" y="811" width="80" height="80" as="geometry" />
        </mxCell>
        <mxCell id="pCiRipMVR1fJTcz5pFKm-40" value="Archive" style="ellipse;whiteSpace=wrap;html=1;aspect=fixed;" parent="1" vertex="1">
          <mxGeometry x="-400" y="950" width="80" height="80" as="geometry" />
        </mxCell>
        <mxCell id="pCiRipMVR1fJTcz5pFKm-42" value="&lt;font style=&quot;font-size: 32px;&quot;&gt;Operation&lt;/font&gt;" style="ellipse;whiteSpace=wrap;html=1;aspect=fixed;fillColor=#FDFFE0;" parent="1" vertex="1">
          <mxGeometry x="40" y="780" width="280" height="280" as="geometry" />
        </mxCell>
        <mxCell id="pCiRipMVR1fJTcz5pFKm-43" value="Identify / Confirm Vulnerabilities" style="ellipse;whiteSpace=wrap;html=1;aspect=fixed;" parent="1" vertex="1">
          <mxGeometry x="85" y="810" width="90" height="90" as="geometry" />
        </mxCell>
        <mxCell id="pCiRipMVR1fJTcz5pFKm-44" value="Assess / Prioritize Remediation" style="ellipse;whiteSpace=wrap;html=1;aspect=fixed;" parent="1" vertex="1">
          <mxGeometry x="190" y="810" width="90" height="90" as="geometry" />
        </mxCell>
        <mxCell id="pCiRipMVR1fJTcz5pFKm-45" value="Root Cause Vulnerabilities" style="ellipse;whiteSpace=wrap;html=1;aspect=fixed;" parent="1" vertex="1">
          <mxGeometry x="190" y="940" width="90" height="90" as="geometry" />
        </mxCell>
        <mxCell id="pCiRipMVR1fJTcz5pFKm-46" value="Secure Deployment" style="ellipse;whiteSpace=wrap;html=1;aspect=fixed;" parent="1" vertex="1">
          <mxGeometry x="85" y="945" width="80" height="80" as="geometry" />
        </mxCell>
        <mxCell id="pCiRipMVR1fJTcz5pFKm-47" value="&lt;font style=&quot;font-size: 32px;&quot;&gt;Decommissioning&lt;/font&gt;" style="ellipse;whiteSpace=wrap;html=1;aspect=fixed;fillColor=#FDFFE0;" parent="1" vertex="1">
          <mxGeometry x="570" y="775" width="290" height="290" as="geometry" />
        </mxCell>
        <mxCell id="pCiRipMVR1fJTcz5pFKm-48" value="Decommissioning Plan" style="ellipse;whiteSpace=wrap;html=1;aspect=fixed;" parent="1" vertex="1">
          <mxGeometry x="660" y="785" width="110" height="110" as="geometry" />
        </mxCell>
        <mxCell id="cdnDQ4XGm6nJxqmNaxKv-1" value="flow" parent="0" />
        <mxCell id="InZZHGaFa6eUnNspskKd-12" value="" style="group" vertex="1" connectable="0" parent="cdnDQ4XGm6nJxqmNaxKv-1">
          <mxGeometry x="-570" y="830" width="970" height="970" as="geometry" />
        </mxCell>
        <mxCell id="InZZHGaFa6eUnNspskKd-4" value="" style="verticalLabelPosition=bottom;verticalAlign=top;html=1;shape=mxgraph.basic.arc;strokeColor=#9999FF;strokeWidth=32;startAngle=0.7992907545140471;endAngle=0.8475949807136545;fillColor=none;" vertex="1" parent="InZZHGaFa6eUnNspskKd-12">
          <mxGeometry width="970" height="970" as="geometry" />
        </mxCell>
        <mxCell id="InZZHGaFa6eUnNspskKd-5" value="" style="triangle;whiteSpace=wrap;html=1;rotation=-55;strokeColor=none;fillColor=#9999FF;" vertex="1" parent="InZZHGaFa6eUnNspskKd-12">
          <mxGeometry x="70" y="170" width="40" height="60" as="geometry" />
        </mxCell>
        <mxCell id="InZZHGaFa6eUnNspskKd-13" value="" style="group" vertex="1" connectable="0" parent="cdnDQ4XGm6nJxqmNaxKv-1">
          <mxGeometry x="-570" y="830" width="970" height="1000" as="geometry" />
        </mxCell>
        <mxCell id="InZZHGaFa6eUnNspskKd-14" value="" style="verticalLabelPosition=bottom;verticalAlign=top;html=1;shape=mxgraph.basic.arc;strokeColor=#9999FF;strokeWidth=32;startAngle=0.6599234583450764;endAngle=0.694216729210609;fillColor=none;" vertex="1" parent="InZZHGaFa6eUnNspskKd-13">
          <mxGeometry width="970" height="970" as="geometry" />
        </mxCell>
        <mxCell id="InZZHGaFa6eUnNspskKd-15" value="" style="triangle;whiteSpace=wrap;html=1;rotation=-110;strokeColor=none;fillColor=#9999FF;" vertex="1" parent="InZZHGaFa6eUnNspskKd-13">
          <mxGeometry x="3" y="607" width="40" height="60" as="geometry" />
        </mxCell>
        <mxCell id="InZZHGaFa6eUnNspskKd-20" value="" style="verticalLabelPosition=bottom;verticalAlign=top;html=1;shape=mxgraph.basic.arc;strokeColor=#9999FF;strokeWidth=32;startAngle=0.4513178656285476;endAngle=0.49196869556605405;fillColor=none;" vertex="1" parent="InZZHGaFa6eUnNspskKd-13">
          <mxGeometry width="970" height="970" as="geometry" />
        </mxCell>
        <mxCell id="InZZHGaFa6eUnNspskKd-21" value="" style="triangle;whiteSpace=wrap;html=1;rotation=-184;strokeColor=none;fillColor=#9999FF;" vertex="1" parent="InZZHGaFa6eUnNspskKd-13">
          <mxGeometry x="480" y="940" width="40" height="60" as="geometry" />
        </mxCell>
        <mxCell id="InZZHGaFa6eUnNspskKd-23" value="" style="verticalLabelPosition=bottom;verticalAlign=top;html=1;shape=mxgraph.basic.arc;strokeColor=#9999FF;strokeWidth=32;startAngle=0.3007302498394282;endAngle=0.3460896907986387;fillColor=none;" vertex="1" parent="InZZHGaFa6eUnNspskKd-13">
          <mxGeometry width="970" height="970" as="geometry" />
        </mxCell>
        <mxCell id="InZZHGaFa6eUnNspskKd-24" value="" style="triangle;whiteSpace=wrap;html=1;rotation=120;strokeColor=none;fillColor=#9999FF;" vertex="1" parent="InZZHGaFa6eUnNspskKd-13">
          <mxGeometry x="864" y="730" width="40" height="60" as="geometry" />
        </mxCell>
        <mxCell id="InZZHGaFa6eUnNspskKd-26" value="" style="verticalLabelPosition=bottom;verticalAlign=top;html=1;shape=mxgraph.basic.arc;strokeColor=#9999FF;strokeWidth=32;startAngle=0.14699306398563428;endAngle=0.1894405292045783;fillColor=none;" vertex="1" parent="InZZHGaFa6eUnNspskKd-13">
          <mxGeometry width="970" height="970" as="geometry" />
        </mxCell>
        <mxCell id="InZZHGaFa6eUnNspskKd-27" value="" style="triangle;whiteSpace=wrap;html=1;rotation=74;strokeColor=none;fillColor=#9999FF;" vertex="1" parent="InZZHGaFa6eUnNspskKd-13">
          <mxGeometry x="915" y="280" width="40" height="60" as="geometry" />
        </mxCell>
        <mxCell id="InZZHGaFa6eUnNspskKd-28" value="" style="verticalLabelPosition=bottom;verticalAlign=top;html=1;shape=mxgraph.basic.arc;strokeColor=#9999FF;strokeWidth=32;startAngle=0.9572127084375843;endAngle=0.02920174213867041;fillColor=none;" vertex="1" parent="InZZHGaFa6eUnNspskKd-13">
          <mxGeometry width="970" height="970" as="geometry" />
        </mxCell>
        <mxCell id="InZZHGaFa6eUnNspskKd-29" value="" style="triangle;whiteSpace=wrap;html=1;rotation=15;strokeColor=none;fillColor=#9999FF;" vertex="1" parent="InZZHGaFa6eUnNspskKd-13">
          <mxGeometry x="560" y="-20" width="40" height="60" as="geometry" />
        </mxCell>
        <mxCell id="InZZHGaFa6eUnNspskKd-31" value="" style="verticalLabelPosition=bottom;verticalAlign=top;html=1;shape=mxgraph.basic.arc;strokeColor=#9999FF;strokeWidth=32;startAngle=0.9572127084375843;endAngle=0.02920174213867041;fillColor=none;" vertex="1" parent="cdnDQ4XGm6nJxqmNaxKv-1">
          <mxGeometry x="-28" y="830" width="970" height="970" as="geometry" />
        </mxCell>
        <mxCell id="InZZHGaFa6eUnNspskKd-32" value="" style="triangle;whiteSpace=wrap;html=1;rotation=15;strokeColor=none;fillColor=#9999FF;" vertex="1" parent="cdnDQ4XGm6nJxqmNaxKv-1">
          <mxGeometry x="532" y="810" width="40" height="60" as="geometry" />
        </mxCell>
        <mxCell id="InZZHGaFa6eUnNspskKd-33" value="gates" parent="0" />
        <mxCell id="pCiRipMVR1fJTcz5pFKm-14" value="&lt;br&gt;&lt;br&gt;&lt;br&gt;&lt;br&gt;&lt;br&gt;Requirements&lt;br&gt;Gate" style="rhombus;whiteSpace=wrap;html=1;fontSize=12;fillColor=#C7F9C7;" parent="InZZHGaFa6eUnNspskKd-33" vertex="1">
          <mxGeometry x="340" y="1510" width="30" height="30" as="geometry" />
        </mxCell>
        <mxCell id="pCiRipMVR1fJTcz5pFKm-41" value="&lt;br&gt;&lt;br&gt;&lt;br&gt;&lt;br&gt;&lt;br&gt;Release&lt;br&gt;Gate" style="rhombus;whiteSpace=wrap;html=1;fontSize=12;fillColor=#FDFFE0;" parent="InZZHGaFa6eUnNspskKd-33" vertex="1">
          <mxGeometry x="-111" y="814" width="30" height="30" as="geometry" />
        </mxCell>
        <mxCell id="pCiRipMVR1fJTcz5pFKm-21" value="&lt;br&gt;&lt;br&gt;&lt;br&gt;&lt;br&gt;&lt;br&gt;Design&lt;br&gt;Gate" style="rhombus;whiteSpace=wrap;html=1;fontSize=12;fillColor=#C7F9C7;" parent="InZZHGaFa6eUnNspskKd-33" vertex="1">
          <mxGeometry x="-20" y="1780" width="30" height="30" as="geometry" />
        </mxCell>
        <mxCell id="pCiRipMVR1fJTcz5pFKm-15" value="&lt;br&gt;&lt;br&gt;&lt;br&gt;&lt;br&gt;&lt;br&gt;Implementation&lt;br&gt;Gate" style="rhombus;whiteSpace=wrap;html=1;fontSize=12;fillColor=#C7F9C7;" parent="InZZHGaFa6eUnNspskKd-33" vertex="1">
          <mxGeometry x="-540" y="1510" width="30" height="30" as="geometry" />
        </mxCell>
        <mxCell id="pCiRipMVR1fJTcz5pFKm-37" value="&lt;br&gt;&lt;br&gt;&lt;br&gt;&lt;br&gt;&lt;br&gt;Verification&lt;br&gt;Gate" style="rhombus;whiteSpace=wrap;html=1;fontSize=12;fillColor=#C7F9C7;" parent="InZZHGaFa6eUnNspskKd-33" vertex="1">
          <mxGeometry x="-530" y="1080" width="30" height="30" as="geometry" />
        </mxCell>
      </root>
    </mxGraphModel>
  </diagram>
  <diagram name="implementation division" id="UfFztEDKcP2ZnAUzUCJ0">
    <mxGraphModel dx="2138" dy="1275" grid="1" gridSize="10" guides="1" tooltips="1" connect="1" arrows="1" fold="1" page="0" pageScale="1" pageWidth="1100" pageHeight="850" background="#ffffff" math="0" shadow="0">
      <root>
        <mxCell id="eLuCvLo4TFtf-nSePJH--0" />
        <mxCell id="eLuCvLo4TFtf-nSePJH--9" value="implementation phase" parent="eLuCvLo4TFtf-nSePJH--0" />
        <mxCell id="eLuCvLo4TFtf-nSePJH--23" value="&lt;p&gt;&lt;br&gt;&lt;/p&gt;" style="shape=step;whiteSpace=wrap;html=1;fontSize=28;strokeColor=#82b366;fillColor=#CCFFCC;" vertex="1" parent="eLuCvLo4TFtf-nSePJH--9">
          <mxGeometry x="310" y="250" width="170" height="40" as="geometry" />
        </mxCell>
        <mxCell id="eLuCvLo4TFtf-nSePJH--28" value="&lt;span style=&quot;color: rgb(0, 0, 0); font-family: Helvetica; font-size: 14px; font-style: normal; font-variant-ligatures: normal; font-variant-caps: normal; font-weight: 400; letter-spacing: normal; orphans: 2; text-indent: 0px; text-transform: none; widows: 2; word-spacing: 0px; -webkit-text-stroke-width: 0px; text-decoration-thickness: initial; text-decoration-style: initial; text-decoration-color: initial; float: none; display: inline !important; background-color: rgb(204, 255, 204);&quot;&gt;Implementation&lt;/span&gt;" style="text;whiteSpace=wrap;html=1;align=center;verticalAlign=middle;fillColor=none;" vertex="1" parent="eLuCvLo4TFtf-nSePJH--9">
          <mxGeometry x="345" y="250" width="100" height="40" as="geometry" />
        </mxCell>
        <mxCell id="3KGTXSEBezWcTATJa__L-5" value="&lt;div style=&quot;border-color: var(--border-color);&quot;&gt;&lt;div style=&quot;border-color: var(--border-color);&quot;&gt;&lt;br&gt;&lt;/div&gt;&lt;/div&gt;" style="rounded=0;whiteSpace=wrap;html=1;fillColor=#ccffcc;" vertex="1" parent="eLuCvLo4TFtf-nSePJH--9">
          <mxGeometry x="600" y="510" width="140" height="120" as="geometry" />
        </mxCell>
        <mxCell id="3KGTXSEBezWcTATJa__L-6" value="&lt;div style=&quot;border-color: var(--border-color);&quot;&gt;&lt;br&gt;&lt;/div&gt;" style="rounded=0;whiteSpace=wrap;html=1;fillColor=#ccffcc;" vertex="1" parent="eLuCvLo4TFtf-nSePJH--9">
          <mxGeometry x="600" y="270" width="140" height="190" as="geometry" />
        </mxCell>
        <mxCell id="3KGTXSEBezWcTATJa__L-7" value="" style="shape=flexArrow;endArrow=classic;html=1;rounded=0;fillColor=#9999FF;strokeColor=none;endWidth=24;endSize=8.6;width=19;" edge="1" parent="eLuCvLo4TFtf-nSePJH--9">
          <mxGeometry width="50" height="50" relative="1" as="geometry">
            <mxPoint x="480" y="400" as="sourcePoint" />
            <mxPoint x="590" y="370" as="targetPoint" />
          </mxGeometry>
        </mxCell>
        <mxCell id="3KGTXSEBezWcTATJa__L-8" value="" style="shape=flexArrow;endArrow=classic;html=1;rounded=0;fillColor=#9999FF;strokeColor=none;endWidth=24;endSize=8.6;width=19;" edge="1" parent="eLuCvLo4TFtf-nSePJH--9">
          <mxGeometry width="50" height="50" relative="1" as="geometry">
            <mxPoint x="480" y="550" as="sourcePoint" />
            <mxPoint x="590" y="570" as="targetPoint" />
          </mxGeometry>
        </mxCell>
        <mxCell id="UluVY-H-EadSniA40acm-0" value="" style="rounded=0;whiteSpace=wrap;html=1;shadow=0;strokeColor=#000000;fillColor=#CCFFCC;" vertex="1" parent="eLuCvLo4TFtf-nSePJH--9">
          <mxGeometry x="325" y="300" width="140" height="310" as="geometry" />
        </mxCell>
        <mxCell id="UluVY-H-EadSniA40acm-1" value="Secure Code Review" style="rounded=0;whiteSpace=wrap;html=1;fillColor=none;strokeColor=none;" vertex="1" parent="eLuCvLo4TFtf-nSePJH--9">
          <mxGeometry x="325" y="580" width="140" height="30" as="geometry" />
        </mxCell>
        <mxCell id="UluVY-H-EadSniA40acm-2" value="Fuzz Testing" style="rounded=0;whiteSpace=wrap;html=1;fillColor=none;strokeColor=none;" vertex="1" parent="eLuCvLo4TFtf-nSePJH--9">
          <mxGeometry x="325" y="550" width="140" height="30" as="geometry" />
        </mxCell>
        <mxCell id="UluVY-H-EadSniA40acm-3" value="Dynamic Analysis" style="rounded=0;whiteSpace=wrap;html=1;fillColor=none;strokeColor=none;" vertex="1" parent="eLuCvLo4TFtf-nSePJH--9">
          <mxGeometry x="325" y="520" width="140" height="30" as="geometry" />
        </mxCell>
        <mxCell id="UluVY-H-EadSniA40acm-4" value="Static Analysis" style="rounded=0;whiteSpace=wrap;html=1;fillColor=none;strokeColor=none;" vertex="1" parent="eLuCvLo4TFtf-nSePJH--9">
          <mxGeometry x="325" y="490" width="140" height="30" as="geometry" />
        </mxCell>
        <mxCell id="UluVY-H-EadSniA40acm-5" value="Deprecate Unsafe Functions" style="rounded=0;whiteSpace=wrap;html=1;fillColor=none;strokeColor=none;" vertex="1" parent="eLuCvLo4TFtf-nSePJH--9">
          <mxGeometry x="600" y="420" width="140" height="40" as="geometry" />
        </mxCell>
        <mxCell id="UluVY-H-EadSniA40acm-6" value="Code Securely" style="rounded=0;whiteSpace=wrap;html=1;fillColor=none;strokeColor=none;" vertex="1" parent="eLuCvLo4TFtf-nSePJH--9">
          <mxGeometry x="600" y="390" width="140" height="30" as="geometry" />
        </mxCell>
        <mxCell id="UluVY-H-EadSniA40acm-7" value="Reuse Secure Software" style="rounded=0;whiteSpace=wrap;html=1;fillColor=none;strokeColor=none;" vertex="1" parent="eLuCvLo4TFtf-nSePJH--9">
          <mxGeometry x="600" y="360" width="140" height="30" as="geometry" />
        </mxCell>
        <mxCell id="UluVY-H-EadSniA40acm-8" value="Use Secure Settings" style="rounded=0;whiteSpace=wrap;html=1;fillColor=none;strokeColor=none;" vertex="1" parent="eLuCvLo4TFtf-nSePJH--9">
          <mxGeometry x="600" y="330" width="140" height="30" as="geometry" />
        </mxCell>
        <mxCell id="UluVY-H-EadSniA40acm-9" value="Configure Secure Build" style="rounded=0;whiteSpace=wrap;html=1;fillColor=none;strokeColor=none;" vertex="1" parent="eLuCvLo4TFtf-nSePJH--9">
          <mxGeometry x="600" y="300" width="140" height="30" as="geometry" />
        </mxCell>
        <mxCell id="UluVY-H-EadSniA40acm-10" value="Use Approved Tools" style="rounded=0;whiteSpace=wrap;html=1;fillColor=none;strokeColor=none;" vertex="1" parent="eLuCvLo4TFtf-nSePJH--9">
          <mxGeometry x="600" y="270" width="140" height="30" as="geometry" />
        </mxCell>
        <mxCell id="UluVY-H-EadSniA40acm-12" value="Secure Code Review" style="rounded=0;whiteSpace=wrap;html=1;fillColor=none;strokeColor=none;" vertex="1" parent="eLuCvLo4TFtf-nSePJH--9">
          <mxGeometry x="600" y="600" width="140" height="30" as="geometry" />
        </mxCell>
        <mxCell id="UluVY-H-EadSniA40acm-13" value="Fuzz Testing" style="rounded=0;whiteSpace=wrap;html=1;fillColor=none;strokeColor=none;" vertex="1" parent="eLuCvLo4TFtf-nSePJH--9">
          <mxGeometry x="600" y="570" width="140" height="30" as="geometry" />
        </mxCell>
        <mxCell id="UluVY-H-EadSniA40acm-14" value="Dynamic Analysis" style="rounded=0;whiteSpace=wrap;html=1;fillColor=none;strokeColor=none;" vertex="1" parent="eLuCvLo4TFtf-nSePJH--9">
          <mxGeometry x="600" y="540" width="140" height="30" as="geometry" />
        </mxCell>
        <mxCell id="UluVY-H-EadSniA40acm-15" value="Static Analysis" style="rounded=0;whiteSpace=wrap;html=1;fillColor=none;strokeColor=none;" vertex="1" parent="eLuCvLo4TFtf-nSePJH--9">
          <mxGeometry x="600" y="510" width="140" height="30" as="geometry" />
        </mxCell>
        <mxCell id="UluVY-H-EadSniA40acm-16" value="&lt;div style=&quot;border-color: var(--border-color);&quot;&gt;&lt;br&gt;&lt;/div&gt;" style="rounded=0;whiteSpace=wrap;html=1;fillColor=#ccffcc;" vertex="1" parent="eLuCvLo4TFtf-nSePJH--9">
          <mxGeometry x="325" y="300" width="140" height="190" as="geometry" />
        </mxCell>
        <mxCell id="UluVY-H-EadSniA40acm-17" value="Deprecate Unsafe Functions" style="rounded=0;whiteSpace=wrap;html=1;fillColor=none;strokeColor=none;" vertex="1" parent="eLuCvLo4TFtf-nSePJH--9">
          <mxGeometry x="325" y="450" width="140" height="40" as="geometry" />
        </mxCell>
        <mxCell id="UluVY-H-EadSniA40acm-18" value="Code Securely" style="rounded=0;whiteSpace=wrap;html=1;fillColor=none;strokeColor=none;" vertex="1" parent="eLuCvLo4TFtf-nSePJH--9">
          <mxGeometry x="325" y="420" width="140" height="30" as="geometry" />
        </mxCell>
        <mxCell id="UluVY-H-EadSniA40acm-19" value="Reuse Secure Software" style="rounded=0;whiteSpace=wrap;html=1;fillColor=none;strokeColor=none;" vertex="1" parent="eLuCvLo4TFtf-nSePJH--9">
          <mxGeometry x="325" y="390" width="140" height="30" as="geometry" />
        </mxCell>
        <mxCell id="UluVY-H-EadSniA40acm-20" value="Use Secure Settings" style="rounded=0;whiteSpace=wrap;html=1;fillColor=none;strokeColor=none;" vertex="1" parent="eLuCvLo4TFtf-nSePJH--9">
          <mxGeometry x="325" y="360" width="140" height="30" as="geometry" />
        </mxCell>
        <mxCell id="UluVY-H-EadSniA40acm-21" value="Configure Secure Build" style="rounded=0;whiteSpace=wrap;html=1;fillColor=none;strokeColor=none;" vertex="1" parent="eLuCvLo4TFtf-nSePJH--9">
          <mxGeometry x="325" y="330" width="140" height="30" as="geometry" />
        </mxCell>
        <mxCell id="UluVY-H-EadSniA40acm-22" value="Use Approved Tools" style="rounded=0;whiteSpace=wrap;html=1;fillColor=none;strokeColor=none;" vertex="1" parent="eLuCvLo4TFtf-nSePJH--9">
          <mxGeometry x="325" y="300" width="140" height="30" as="geometry" />
        </mxCell>
        <mxCell id="ZcuCPqdplXF97ezIh3XJ-0" value="labels" parent="eLuCvLo4TFtf-nSePJH--0" />
        <mxCell id="ZcuCPqdplXF97ezIh3XJ-9" value="&lt;font style=&quot;font-size: 60px;&quot;&gt;Passive&lt;/font&gt;" style="text;html=1;strokeColor=none;fillColor=none;align=left;verticalAlign=middle;whiteSpace=wrap;rounded=0;" vertex="1" parent="ZcuCPqdplXF97ezIh3XJ-0">
          <mxGeometry x="810" y="335" width="240" height="60" as="geometry" />
        </mxCell>
        <mxCell id="ZcuCPqdplXF97ezIh3XJ-10" value="&lt;font style=&quot;font-size: 60px;&quot;&gt;Active&lt;/font&gt;" style="text;html=1;strokeColor=none;fillColor=none;align=left;verticalAlign=middle;whiteSpace=wrap;rounded=0;" vertex="1" parent="ZcuCPqdplXF97ezIh3XJ-0">
          <mxGeometry x="810" y="540" width="240" height="60" as="geometry" />
        </mxCell>
        <mxCell id="ZcuCPqdplXF97ezIh3XJ-25" value="targets" visible="0" parent="eLuCvLo4TFtf-nSePJH--0" />
        <mxCell id="ZcuCPqdplXF97ezIh3XJ-38" style="rounded=0;orthogonalLoop=1;jettySize=auto;html=1;exitX=0;exitY=0.5;exitDx=0;exitDy=0;entryX=1;entryY=0.5;entryDx=0;entryDy=0;" edge="1" parent="ZcuCPqdplXF97ezIh3XJ-25" source="ZcuCPqdplXF97ezIh3XJ-11" target="UluVY-H-EadSniA40acm-10">
          <mxGeometry relative="1" as="geometry" />
        </mxCell>
        <mxCell id="ZcuCPqdplXF97ezIh3XJ-39" style="rounded=0;orthogonalLoop=1;jettySize=auto;html=1;exitX=0;exitY=0.5;exitDx=0;exitDy=0;entryX=1;entryY=0.5;entryDx=0;entryDy=0;" edge="1" parent="ZcuCPqdplXF97ezIh3XJ-25" source="ZcuCPqdplXF97ezIh3XJ-11" target="UluVY-H-EadSniA40acm-9">
          <mxGeometry relative="1" as="geometry" />
        </mxCell>
        <mxCell id="ZcuCPqdplXF97ezIh3XJ-40" style="rounded=0;orthogonalLoop=1;jettySize=auto;html=1;exitX=0;exitY=0.5;exitDx=0;exitDy=0;entryX=1;entryY=0.5;entryDx=0;entryDy=0;" edge="1" parent="ZcuCPqdplXF97ezIh3XJ-25" source="ZcuCPqdplXF97ezIh3XJ-11" target="UluVY-H-EadSniA40acm-8">
          <mxGeometry relative="1" as="geometry" />
        </mxCell>
        <mxCell id="ZcuCPqdplXF97ezIh3XJ-41" style="rounded=0;orthogonalLoop=1;jettySize=auto;html=1;exitX=0;exitY=0.5;exitDx=0;exitDy=0;entryX=1;entryY=0.5;entryDx=0;entryDy=0;" edge="1" parent="ZcuCPqdplXF97ezIh3XJ-25" source="ZcuCPqdplXF97ezIh3XJ-11" target="UluVY-H-EadSniA40acm-5">
          <mxGeometry relative="1" as="geometry" />
        </mxCell>
        <mxCell id="ZcuCPqdplXF97ezIh3XJ-11" value="devops" style="rounded=0;whiteSpace=wrap;html=1;fillColor=#fff2cc;strokeColor=#d6b656;" vertex="1" parent="ZcuCPqdplXF97ezIh3XJ-25">
          <mxGeometry x="870" y="330" width="90" height="30" as="geometry" />
        </mxCell>
        <mxCell id="ZcuCPqdplXF97ezIh3XJ-16" style="edgeStyle=orthogonalEdgeStyle;rounded=0;orthogonalLoop=1;jettySize=auto;html=1;exitX=0.5;exitY=1;exitDx=0;exitDy=0;" edge="1" parent="ZcuCPqdplXF97ezIh3XJ-25" source="ZcuCPqdplXF97ezIh3XJ-11" target="ZcuCPqdplXF97ezIh3XJ-11">
          <mxGeometry relative="1" as="geometry" />
        </mxCell>
        <mxCell id="ZcuCPqdplXF97ezIh3XJ-42" style="rounded=0;orthogonalLoop=1;jettySize=auto;html=1;exitX=0;exitY=0.5;exitDx=0;exitDy=0;entryX=1;entryY=0.5;entryDx=0;entryDy=0;" edge="1" parent="ZcuCPqdplXF97ezIh3XJ-25" source="ZcuCPqdplXF97ezIh3XJ-17" target="UluVY-H-EadSniA40acm-7">
          <mxGeometry relative="1" as="geometry" />
        </mxCell>
        <mxCell id="ZcuCPqdplXF97ezIh3XJ-43" style="rounded=0;orthogonalLoop=1;jettySize=auto;html=1;exitX=0;exitY=0.5;exitDx=0;exitDy=0;entryX=1;entryY=0.5;entryDx=0;entryDy=0;" edge="1" parent="ZcuCPqdplXF97ezIh3XJ-25" source="ZcuCPqdplXF97ezIh3XJ-17" target="UluVY-H-EadSniA40acm-6">
          <mxGeometry relative="1" as="geometry" />
        </mxCell>
        <mxCell id="ZcuCPqdplXF97ezIh3XJ-44" style="rounded=0;orthogonalLoop=1;jettySize=auto;html=1;exitX=0;exitY=0.5;exitDx=0;exitDy=0;entryX=1;entryY=0.5;entryDx=0;entryDy=0;" edge="1" parent="ZcuCPqdplXF97ezIh3XJ-25" source="ZcuCPqdplXF97ezIh3XJ-17" target="UluVY-H-EadSniA40acm-13">
          <mxGeometry relative="1" as="geometry" />
        </mxCell>
        <mxCell id="ZcuCPqdplXF97ezIh3XJ-47" style="rounded=0;orthogonalLoop=1;jettySize=auto;html=1;exitX=0;exitY=0.5;exitDx=0;exitDy=0;entryX=1;entryY=0.5;entryDx=0;entryDy=0;" edge="1" parent="ZcuCPqdplXF97ezIh3XJ-25" source="ZcuCPqdplXF97ezIh3XJ-17" target="UluVY-H-EadSniA40acm-14">
          <mxGeometry relative="1" as="geometry" />
        </mxCell>
        <mxCell id="ZcuCPqdplXF97ezIh3XJ-48" style="rounded=0;orthogonalLoop=1;jettySize=auto;html=1;exitX=0;exitY=0.5;exitDx=0;exitDy=0;entryX=1;entryY=0.5;entryDx=0;entryDy=0;" edge="1" parent="ZcuCPqdplXF97ezIh3XJ-25" source="ZcuCPqdplXF97ezIh3XJ-17" target="UluVY-H-EadSniA40acm-15">
          <mxGeometry relative="1" as="geometry" />
        </mxCell>
        <mxCell id="ZcuCPqdplXF97ezIh3XJ-49" style="rounded=0;orthogonalLoop=1;jettySize=auto;html=1;exitX=0;exitY=0.5;exitDx=0;exitDy=0;entryX=1;entryY=0.5;entryDx=0;entryDy=0;" edge="1" parent="ZcuCPqdplXF97ezIh3XJ-25" source="ZcuCPqdplXF97ezIh3XJ-17" target="UluVY-H-EadSniA40acm-12">
          <mxGeometry relative="1" as="geometry" />
        </mxCell>
        <mxCell id="ZcuCPqdplXF97ezIh3XJ-17" value="developer" style="rounded=0;whiteSpace=wrap;html=1;fillColor=#fff2cc;strokeColor=#d6b656;" vertex="1" parent="ZcuCPqdplXF97ezIh3XJ-25">
          <mxGeometry x="870" y="450" width="90" height="30" as="geometry" />
        </mxCell>
        <mxCell id="ZcuCPqdplXF97ezIh3XJ-46" style="rounded=0;orthogonalLoop=1;jettySize=auto;html=1;exitX=0;exitY=0.5;exitDx=0;exitDy=0;entryX=1;entryY=0.5;entryDx=0;entryDy=0;dashed=1;dashPattern=8 8;" edge="1" parent="ZcuCPqdplXF97ezIh3XJ-25" source="ZcuCPqdplXF97ezIh3XJ-18" target="UluVY-H-EadSniA40acm-12">
          <mxGeometry relative="1" as="geometry" />
        </mxCell>
        <mxCell id="ZcuCPqdplXF97ezIh3XJ-18" value="cybersecurity" style="rounded=0;whiteSpace=wrap;html=1;fillColor=#fff2cc;strokeColor=#d6b656;" vertex="1" parent="ZcuCPqdplXF97ezIh3XJ-25">
          <mxGeometry x="870" y="570" width="90" height="30" as="geometry" />
        </mxCell>
      </root>
    </mxGraphModel>
  </diagram>
</mxfile>
